<svg width="112" height="56" viewBox="0 0 112 56" fill="none" xmlns="http://www.w3.org/2000/svg">
<path d="M8.206 44L0.484 44.162C0.268 43.514 0.268 42.866 0.484 42.218L4.966 41.624C5.11 39.788 5.182 37.664 5.182 35.252V3.392L0.808 2.852C0.664 2.312 0.664 1.646 0.808 0.853999C2.788 0.997999 5.254 1.07 8.206 1.07C10.834 1.07 13.318 1.016 15.658 0.907998C15.874 1.556 15.874 2.204 15.658 2.852L11.176 3.5C11.032 4.868 10.96 6.974 10.96 9.818V41.246H28.78L31.318 31.472C31.858 31.328 32.524 31.328 33.316 31.472L33.262 44H8.206ZM42.0594 37.412H42.1134C42.5454 35.72 43.2474 33.506 44.2194 30.77L54.0474 3.392L49.6734 2.852C49.5294 2.312 49.5294 1.646 49.6734 0.853999C51.6534 0.997999 53.5614 1.07 55.3974 1.07C56.9814 1.07 58.9254 1.016 61.2294 0.907998C61.4454 1.556 61.4454 2.204 61.2294 2.852L57.6654 3.5C57.0894 4.364 56.3694 5.966 55.5054 8.306L41.5734 45.62H39.6834L23.6994 3.392L19.3254 2.852C19.1814 2.312 19.1814 1.646 19.3254 0.853999C21.3054 0.997999 23.8614 1.07 26.9934 1.07C29.8014 1.07 32.3754 1.016 34.7154 0.907998C34.9314 1.556 34.9314 2.204 34.7154 2.852L30.2334 3.5L40.1154 30.77C40.8714 32.966 41.5194 35.18 42.0594 37.412ZM63.2337 50.1076C64.1409 49.2004 65.3397 47.8936 66.8301 46.1872C66.8949 46.1224 66.9489 46.09 66.9921 46.09C67.0353 46.09 67.0569 46.1332 67.0569 46.2196C67.0569 46.63 66.8949 47.0296 66.5709 47.4184C64.9725 49.1896 63.5577 50.6692 62.3265 51.8572C59.7345 54.2548 58.0281 55.4536 57.2073 55.4536C56.8833 55.4536 56.7213 55.2484 56.7213 54.838C56.7213 54.0604 57.1641 52.8832 58.0497 51.3064C58.9353 49.708 59.8101 48.2284 60.6741 46.8676C61.5597 45.4852 62.0025 44.6752 62.0025 44.4376C62.0025 44.308 61.9377 44.2432 61.8081 44.2432C61.2897 44.2432 60.3069 45.0424 58.8597 46.6408C57.4125 48.2392 56.1921 49.6756 55.1985 50.95C54.0969 52.3324 53.1357 53.434 52.3149 54.2548C51.5157 55.0756 50.9865 55.54 50.7273 55.648L50.3061 55.8424C50.1117 55.8424 50.0145 55.7344 50.0145 55.5184C50.0145 55.1728 50.2089 54.5572 50.5977 53.6716C50.9865 52.786 51.3753 51.9868 51.7641 51.274L52.3473 50.2048L57.4017 41.1328C61.3761 34.1128 64.5081 29.1232 66.7977 26.164C67.4457 25.3 67.8993 24.868 68.1585 24.868C68.2881 24.868 68.3529 24.9544 68.3529 25.1272C68.3529 25.5808 68.0073 26.5096 67.3161 27.9136C63.9249 34.0264 61.5705 38.26 60.2529 40.6144C59.4537 42.04 58.7301 43.3144 58.0821 44.4376C57.4341 45.5392 56.9697 46.3168 56.6889 46.7704C56.4297 47.224 56.2029 47.6236 56.0085 47.9692C55.8141 48.2932 55.6629 48.574 55.5549 48.8116C55.5333 48.8764 55.5225 48.9412 55.5225 49.006C55.5225 49.114 55.5441 49.168 55.5873 49.168C55.6305 49.168 55.7169 49.1032 55.8465 48.9736C60.6849 43.5952 63.8601 40.906 65.3721 40.906C65.6745 40.906 65.8257 41.0572 65.8257 41.3596C65.8257 41.446 65.7825 41.6404 65.6961 41.9428C65.6097 42.2236 65.3613 42.8068 64.9509 43.6924C64.5405 44.578 64.0005 45.5608 63.3309 46.6408C62.9205 47.2456 62.4021 48.1096 61.7757 49.2328C61.1493 50.356 60.8361 51.0904 60.8361 51.436C60.8361 51.6304 60.9333 51.7276 61.1277 51.7276C61.1925 51.7276 61.2789 51.706 61.3869 51.6628C61.5165 51.598 61.6569 51.5008 61.8081 51.3712C61.9593 51.2416 62.0889 51.1228 62.1969 51.0148C62.3265 50.9068 62.4993 50.7556 62.7153 50.5612C62.9529 50.3452 63.1257 50.194 63.2337 50.1076ZM79.6921 43.5952C79.8865 43.6384 79.9837 43.7032 79.9837 43.7896C79.9837 43.9192 79.8973 44.0704 79.7245 44.2432C79.4869 44.4808 79.1305 44.794 78.6553 45.1828C78.2017 45.5716 77.9317 45.8092 77.8453 45.8956L77.3917 46.5112C76.9381 47.7856 76.2361 49.114 75.2857 50.4964C74.3569 51.8572 73.2121 53.056 71.8513 54.0928C70.5121 55.1296 69.2269 55.648 67.9957 55.648C66.4621 55.648 65.6953 54.7084 65.6953 52.8292C65.6953 51.166 66.2353 49.3732 67.3153 47.4508C68.3953 45.5068 69.7885 43.8544 71.4949 42.4936C73.2229 41.1112 74.9185 40.42 76.5817 40.42C77.7913 40.42 78.3961 40.8952 78.3961 41.8456C78.3961 42.364 78.1369 43.066 77.6185 43.9516C77.5969 43.9732 77.5861 44.0056 77.5861 44.0488C77.5861 44.092 77.6077 44.1136 77.6509 44.1136C78.4501 43.7896 79.1305 43.6168 79.6921 43.5952ZM76.6141 44.3728C76.7869 43.6168 76.8733 43.0336 76.8733 42.6232C76.8733 41.716 76.5709 41.2624 75.9661 41.2624C75.1237 41.2624 74.0761 42.04 72.8233 43.5952C71.5705 45.1504 70.4905 46.9 69.5833 48.844C68.6977 50.788 68.2549 52.3216 68.2549 53.4448C68.2549 54.2656 68.5465 54.676 69.1297 54.676C70.0369 54.676 71.1169 53.7688 72.3697 51.9544C73.6441 50.14 74.4109 48.3148 74.6701 46.4788C74.6485 46.4356 74.6377 46.3708 74.6377 46.2844C74.6377 45.658 75.1993 45.0964 76.3225 44.5996C76.4953 44.5348 76.5925 44.4592 76.6141 44.3728ZM96.853 50.1076C97.7602 49.2004 98.959 47.8936 100.449 46.1872C100.514 46.1224 100.568 46.09 100.611 46.09C100.655 46.09 100.676 46.1332 100.676 46.2196C100.676 46.63 100.514 47.0296 100.19 47.4184C98.5918 49.1896 97.177 50.6692 95.9458 51.8572C93.397 54.2332 91.723 55.4212 90.9238 55.4212C90.5782 55.4212 90.4054 55.216 90.4054 54.8056C90.4054 54.3952 90.6214 53.7148 91.0534 52.7644C91.507 51.814 91.9498 50.95 92.3818 50.1724C92.8354 49.3948 93.397 48.4444 94.0666 47.3212C94.7578 46.198 95.125 45.5932 95.1682 45.5068C95.557 44.8804 95.7514 44.4808 95.7514 44.308C95.7514 44.2 95.6974 44.146 95.5894 44.146L95.1358 44.308C94.1422 45.0208 92.9542 46.1332 91.5718 47.6452C90.1894 49.1356 89.0554 50.4424 88.1698 51.5656L86.8414 53.2828C85.8478 54.7084 84.8758 55.4212 83.9254 55.4212C83.6446 55.4212 83.5042 55.3348 83.5042 55.162C83.5042 54.9676 83.7094 54.46 84.1198 53.6392C84.5302 52.7968 84.9406 52.0084 85.351 51.274L85.9666 50.1724C86.1178 49.87 86.485 49.222 87.0682 48.2284C87.673 47.2132 88.1698 46.3492 88.5586 45.6364C88.969 44.902 89.1742 44.4484 89.1742 44.2756C89.1742 44.1676 89.131 44.1136 89.0446 44.1136L88.591 44.308C87.5758 45.0208 86.377 46.1332 84.9946 47.6452C83.6122 49.1356 82.489 50.4424 81.625 51.5656L80.2966 53.2828C79.2814 54.6868 78.3094 55.3888 77.3806 55.3888C77.0998 55.3888 76.9594 55.3132 76.9594 55.162C76.9594 54.9676 77.1646 54.46 77.575 53.6392C77.9854 52.7968 78.3958 52.0084 78.8062 51.274L79.4218 50.1724L82.5646 44.5996C83.083 43.6276 83.7094 42.7636 84.4438 42.0076C85.1782 41.23 85.945 40.8412 86.7442 40.8412C86.917 40.8412 87.0034 40.9168 87.0034 41.068C87.0034 41.1976 86.8738 41.4784 86.6146 41.9104C86.377 42.3208 86.0206 42.904 85.5454 43.66C85.0918 44.3944 84.703 45.0748 84.379 45.7012C84.1846 46.0684 83.947 46.4896 83.6662 46.9648C83.407 47.4184 83.191 47.8072 83.0182 48.1312C82.8454 48.4336 82.7266 48.6496 82.6618 48.7792C82.597 48.9088 82.5646 49.006 82.5646 49.0708C82.5646 49.114 82.5862 49.1356 82.6294 49.1356C82.6942 49.1356 82.8022 49.06 82.9534 48.9088C83.3638 48.4336 83.893 47.8396 84.541 47.1268C85.2106 46.414 86.3338 45.3448 87.9106 43.9192C89.4874 42.472 90.7834 41.5 91.7986 41.0032C92.0146 40.8952 92.2306 40.8412 92.4466 40.8412C92.749 40.8412 92.9002 40.9924 92.9002 41.2948C92.9002 41.8564 92.263 43.3144 90.9886 45.6688C90.8806 45.8632 90.6538 46.2412 90.3082 46.8028C89.9842 47.3644 89.7034 47.8504 89.4658 48.2608C89.2498 48.6712 89.1418 48.9304 89.1418 49.0384C89.1418 49.1032 89.1634 49.1356 89.2066 49.1356C89.2714 49.1356 89.3794 49.06 89.5306 48.9088C89.941 48.4336 90.4702 47.8396 91.1182 47.1268C91.7878 46.414 92.9002 45.3448 94.4554 43.9192C96.0322 42.472 97.3282 41.5 98.3434 41.0032C98.6026 40.8952 98.8294 40.8412 99.0238 40.8412C99.3478 40.8412 99.5098 40.9924 99.5098 41.2948C99.5098 41.3812 99.4666 41.5756 99.3802 41.878C99.2938 42.1588 99.0454 42.7528 98.635 43.66C98.2246 44.5456 97.6846 45.5284 97.015 46.6084C95.3734 49.1356 94.5526 50.7232 94.5526 51.3712C94.5526 51.5656 94.6174 51.6628 94.747 51.6628C95.1142 51.6628 95.8162 51.1444 96.853 50.1076ZM108.066 44.0164C108.325 43.4764 108.455 43.0012 108.455 42.5908C108.455 42.2452 108.347 42.0724 108.131 42.0724C108.001 42.0724 107.85 42.1156 107.677 42.202C107.526 42.2668 107.407 42.3424 107.321 42.4288L107.159 42.5584C106.489 43.1416 105.647 44.2108 104.632 45.766C103.638 47.2996 103.141 48.2824 103.141 48.7144C103.141 48.8008 103.163 48.844 103.206 48.844C103.336 48.844 103.616 48.736 104.048 48.52C104.502 48.304 105.139 47.7964 105.96 46.9972C106.802 46.198 107.504 45.2044 108.066 44.0164ZM106.608 51.436C107.753 50.3776 109.394 48.628 111.533 46.1872C111.598 46.1224 111.652 46.09 111.695 46.09C111.738 46.09 111.76 46.1332 111.76 46.2196C111.76 46.63 111.598 47.0296 111.274 47.4184C109.675 49.1896 108.26 50.6692 107.029 51.8572C106.122 52.7644 105.042 53.6392 103.789 54.4816C102.536 55.3024 101.5 55.7128 100.679 55.7128C99.6851 55.7128 99.1883 55.0216 99.1883 53.6392C99.1883 51.3496 100.031 48.952 101.716 46.4464C103.422 43.9408 105.388 42.2452 107.612 41.3596C108.541 40.9708 109.384 40.7764 110.14 40.7764C110.982 40.7764 111.403 41.1112 111.403 41.7808C111.403 43.0336 110.518 44.47 108.746 46.09C106.975 47.71 104.988 48.9412 102.785 49.7836C102.698 49.8052 102.623 49.8808 102.558 50.0104C102.234 50.896 102.072 51.6844 102.072 52.3756C102.072 53.1532 102.364 53.542 102.947 53.542C103.876 53.542 105.096 52.84 106.608 51.436Z" fill="#4E3B32"/>
</svg>
