<svg width="199" height="133" viewBox="0 0 199 133" fill="none" xmlns="http://www.w3.org/2000/svg">
<g clip-path="url(#clip0_1901_59)">
<path d="M62.601 80.3603L54.879 80.5223C54.663 79.8743 54.663 79.2263 54.879 78.5783L59.361 77.9843C59.505 76.1483 59.577 74.0243 59.577 71.6123V39.7523L55.203 39.2123C55.059 38.6723 55.059 38.0063 55.203 37.2143C57.183 37.3583 59.649 37.4303 62.601 37.4303C65.229 37.4303 67.713 37.3763 70.053 37.2683C70.269 37.9163 70.269 38.5643 70.053 39.2123L65.571 39.8603C65.427 41.2283 65.355 43.3343 65.355 46.1783V77.6063H83.175L85.713 67.8323C86.253 67.6883 86.919 67.6883 87.711 67.8323L87.657 80.3603H62.601ZM96.4543 73.7723H96.5083C96.9403 72.0803 97.6423 69.8663 98.6143 67.1303L108.442 39.7523L104.068 39.2123C103.924 38.6723 103.924 38.0063 104.068 37.2143C106.048 37.3583 107.956 37.4303 109.792 37.4303C111.376 37.4303 113.32 37.3763 115.624 37.2683C115.84 37.9163 115.84 38.5643 115.624 39.2123L112.06 39.8603C111.484 40.7243 110.764 42.3263 109.9 44.6663L95.9683 81.9803H94.0783L78.0943 39.7523L73.7203 39.2123C73.5763 38.6723 73.5763 38.0063 73.7203 37.2143C75.7003 37.3583 78.2563 37.4303 81.3883 37.4303C84.1963 37.4303 86.7703 37.3763 89.1103 37.2683C89.3263 37.9163 89.3263 38.5643 89.1103 39.2123L84.6283 39.8603L94.5103 67.1303C95.2663 69.3263 95.9143 71.5403 96.4543 73.7723Z" fill="white"/>
<path d="M7.44338 51.4698L103.031 6.52003L164.031 124.395L7.44338 51.4698Z" stroke="#FF4C00" stroke-width="4"/>
<g filter="url(#filter0_d_1901_59)">
<path d="M113.105 83.4289C114.012 82.5217 115.211 81.2149 116.702 79.5085C116.766 79.4437 116.82 79.4113 116.864 79.4113C116.907 79.4113 116.928 79.4545 116.928 79.5409C116.928 79.9513 116.766 80.3509 116.442 80.7397C114.844 82.5109 113.429 83.9905 112.198 85.1785C109.606 87.5761 107.9 88.7749 107.079 88.7749C106.755 88.7749 106.593 88.5697 106.593 88.1593C106.593 87.3817 107.036 86.2045 107.921 84.6277C108.807 83.0293 109.682 81.5497 110.546 80.1889C111.431 78.8065 111.874 77.9965 111.874 77.7589C111.874 77.6293 111.809 77.5645 111.68 77.5645C111.161 77.5645 110.178 78.3637 108.731 79.9621C107.284 81.5605 106.064 82.9969 105.07 84.2713C103.968 85.6537 103.007 86.7553 102.186 87.5761C101.387 88.3969 100.858 88.8613 100.599 88.9693L100.178 89.1637C99.9833 89.1637 99.8861 89.0557 99.8861 88.8397C99.8861 88.4941 100.08 87.8785 100.469 86.9929C100.858 86.1073 101.247 85.3081 101.636 84.5953L102.219 83.5261L107.273 74.4541C111.248 67.4341 114.38 62.4445 116.669 59.4853C117.317 58.6213 117.771 58.1893 118.03 58.1893C118.16 58.1893 118.224 58.2757 118.224 58.4485C118.224 58.9021 117.879 59.8309 117.188 61.2349C113.796 67.3477 111.442 71.5813 110.124 73.9357C109.325 75.3613 108.602 76.6357 107.954 77.7589C107.306 78.8605 106.841 79.6381 106.56 80.0917C106.301 80.5453 106.074 80.9449 105.88 81.2905C105.686 81.6145 105.534 81.8953 105.426 82.1329C105.405 82.1977 105.394 82.2625 105.394 82.3273C105.394 82.4353 105.416 82.4893 105.459 82.4893C105.502 82.4893 105.588 82.4245 105.718 82.2949C110.556 76.9165 113.732 74.2273 115.244 74.2273C115.546 74.2273 115.697 74.3785 115.697 74.6809C115.697 74.7673 115.654 74.9617 115.568 75.2641C115.481 75.5449 115.233 76.1281 114.822 77.0137C114.412 77.8993 113.872 78.8821 113.202 79.9621C112.792 80.5669 112.274 81.4309 111.647 82.5541C111.021 83.6773 110.708 84.4117 110.708 84.7573C110.708 84.9517 110.805 85.0489 110.999 85.0489C111.064 85.0489 111.15 85.0273 111.258 84.9841C111.388 84.9193 111.528 84.8221 111.68 84.6925C111.831 84.5629 111.96 84.4441 112.068 84.3361C112.198 84.2281 112.371 84.0769 112.587 83.8825C112.824 83.6665 112.997 83.5153 113.105 83.4289ZM129.564 76.9165C129.758 76.9597 129.855 77.0245 129.855 77.1109C129.855 77.2405 129.769 77.3917 129.596 77.5645C129.359 77.8021 129.002 78.1153 128.527 78.5041C128.073 78.8929 127.803 79.1305 127.717 79.2169L127.263 79.8325C126.81 81.1069 126.108 82.4353 125.157 83.8177C124.229 85.1785 123.084 86.3773 121.723 87.4141C120.384 88.4509 119.099 88.9693 117.867 88.9693C116.334 88.9693 115.567 88.0297 115.567 86.1505C115.567 84.4873 116.107 82.6945 117.187 80.7721C118.267 78.8281 119.66 77.1757 121.367 75.8149C123.095 74.4325 124.79 73.7413 126.453 73.7413C127.663 73.7413 128.268 74.2165 128.268 75.1669C128.268 75.6853 128.009 76.3873 127.49 77.2729C127.469 77.2945 127.458 77.3269 127.458 77.3701C127.458 77.4133 127.479 77.4349 127.523 77.4349C128.322 77.1109 129.002 76.9381 129.564 76.9165ZM126.486 77.6941C126.659 76.9381 126.745 76.3549 126.745 75.9445C126.745 75.0373 126.443 74.5837 125.838 74.5837C124.995 74.5837 123.948 75.3613 122.695 76.9165C121.442 78.4717 120.362 80.2213 119.455 82.1653C118.569 84.1093 118.127 85.6429 118.127 86.7661C118.127 87.5869 118.418 87.9973 119.001 87.9973C119.909 87.9973 120.989 87.0901 122.241 85.2757C123.516 83.4613 124.283 81.6361 124.542 79.8001C124.52 79.7569 124.509 79.6921 124.509 79.6057C124.509 78.9793 125.071 78.4177 126.194 77.9209C126.367 77.8561 126.464 77.7805 126.486 77.6941ZM146.725 83.4289C147.632 82.5217 148.831 81.2149 150.321 79.5085C150.386 79.4437 150.44 79.4113 150.483 79.4113C150.526 79.4113 150.548 79.4545 150.548 79.5409C150.548 79.9513 150.386 80.3509 150.062 80.7397C148.463 82.5109 147.049 83.9905 145.817 85.1785C143.269 87.5545 141.595 88.7425 140.795 88.7425C140.45 88.7425 140.277 88.5373 140.277 88.1269C140.277 87.7165 140.493 87.0361 140.925 86.0857C141.379 85.1353 141.821 84.2713 142.253 83.4937C142.707 82.7161 143.269 81.7657 143.938 80.6425C144.629 79.5193 144.997 78.9145 145.04 78.8281C145.429 78.2017 145.623 77.8021 145.623 77.6293C145.623 77.5213 145.569 77.4673 145.461 77.4673L145.007 77.6293C144.014 78.3421 142.826 79.4545 141.443 80.9665C140.061 82.4569 138.927 83.7637 138.041 84.8869L136.713 86.6041C135.719 88.0297 134.747 88.7425 133.797 88.7425C133.516 88.7425 133.376 88.6561 133.376 88.4833C133.376 88.2889 133.581 87.7813 133.991 86.9605C134.402 86.1181 134.812 85.3297 135.223 84.5953L135.838 83.4937C135.989 83.1913 136.357 82.5433 136.94 81.5497C137.545 80.5345 138.041 79.6705 138.43 78.9577C138.841 78.2233 139.046 77.7697 139.046 77.5969C139.046 77.4889 139.003 77.4349 138.916 77.4349L138.463 77.6293C137.447 78.3421 136.249 79.4545 134.866 80.9665C133.484 82.4569 132.361 83.7637 131.497 84.8869L130.168 86.6041C129.153 88.0081 128.181 88.7101 127.252 88.7101C126.971 88.7101 126.831 88.6345 126.831 88.4833C126.831 88.2889 127.036 87.7813 127.447 86.9605C127.857 86.1181 128.267 85.3297 128.678 84.5953L129.293 83.4937L132.436 77.9209C132.955 76.9489 133.581 76.0849 134.315 75.3289C135.05 74.5513 135.817 74.1625 136.616 74.1625C136.789 74.1625 136.875 74.2381 136.875 74.3893C136.875 74.5189 136.745 74.7997 136.486 75.2317C136.249 75.6421 135.892 76.2253 135.417 76.9813C134.963 77.7157 134.575 78.3961 134.251 79.0225C134.056 79.3897 133.819 79.8109 133.538 80.2861C133.279 80.7397 133.063 81.1285 132.89 81.4525C132.717 81.7549 132.598 81.9709 132.533 82.1005C132.469 82.2301 132.436 82.3273 132.436 82.3921C132.436 82.4353 132.458 82.4569 132.501 82.4569C132.566 82.4569 132.674 82.3813 132.825 82.2301C133.235 81.7549 133.765 81.1609 134.413 80.4481C135.082 79.7353 136.205 78.6661 137.782 77.2405C139.359 75.7933 140.655 74.8213 141.67 74.3245C141.886 74.2165 142.102 74.1625 142.318 74.1625C142.621 74.1625 142.772 74.3137 142.772 74.6161C142.772 75.1777 142.135 76.6357 140.86 78.9901C140.752 79.1845 140.525 79.5625 140.18 80.1241C139.856 80.6857 139.575 81.1717 139.337 81.5821C139.121 81.9925 139.013 82.2517 139.013 82.3597C139.013 82.4245 139.035 82.4569 139.078 82.4569C139.143 82.4569 139.251 82.3813 139.402 82.2301C139.813 81.7549 140.342 81.1609 140.99 80.4481C141.659 79.7353 142.772 78.6661 144.327 77.2405C145.904 75.7933 147.2 74.8213 148.215 74.3245C148.474 74.2165 148.701 74.1625 148.895 74.1625C149.219 74.1625 149.381 74.3137 149.381 74.6161C149.381 74.7025 149.338 74.8969 149.252 75.1993C149.165 75.4801 148.917 76.0741 148.507 76.9813C148.096 77.8669 147.556 78.8497 146.887 79.9297C145.245 82.4569 144.424 84.0445 144.424 84.6925C144.424 84.8869 144.489 84.9841 144.619 84.9841C144.986 84.9841 145.688 84.4657 146.725 83.4289ZM157.938 77.3377C158.197 76.7977 158.326 76.3225 158.326 75.9121C158.326 75.5665 158.218 75.3937 158.002 75.3937C157.873 75.3937 157.722 75.4369 157.549 75.5233C157.398 75.5881 157.279 75.6637 157.192 75.7501L157.03 75.8797C156.361 76.4629 155.518 77.5321 154.503 79.0873C153.51 80.6209 153.013 81.6037 153.013 82.0357C153.013 82.1221 153.034 82.1653 153.078 82.1653C153.207 82.1653 153.488 82.0573 153.92 81.8413C154.374 81.6253 155.011 81.1177 155.832 80.3185C156.674 79.5193 157.376 78.5257 157.938 77.3377ZM156.48 84.7573C157.624 83.6989 159.266 81.9493 161.404 79.5085C161.469 79.4437 161.523 79.4113 161.566 79.4113C161.61 79.4113 161.631 79.4545 161.631 79.5409C161.631 79.9513 161.469 80.3509 161.145 80.7397C159.547 82.5109 158.132 83.9905 156.901 85.1785C155.994 86.0857 154.914 86.9605 153.661 87.8029C152.408 88.6237 151.371 89.0341 150.55 89.0341C149.557 89.0341 149.06 88.3429 149.06 86.9605C149.06 84.6709 149.902 82.2733 151.587 79.7677C153.294 77.2621 155.259 75.5665 157.484 74.6809C158.413 74.2921 159.255 74.0977 160.011 74.0977C160.854 74.0977 161.275 74.4325 161.275 75.1021C161.275 76.3549 160.389 77.7913 158.618 79.4113C156.847 81.0313 154.86 82.2625 152.656 83.1049C152.57 83.1265 152.494 83.2021 152.43 83.3317C152.106 84.2173 151.944 85.0057 151.944 85.6969C151.944 86.4745 152.235 86.8633 152.818 86.8633C153.747 86.8633 154.968 86.1613 156.48 84.7573Z" fill="white"/>
</g>
</g>
<defs>
<filter id="filter0_d_1901_59" x="99.8861" y="58.1893" width="65.745" height="33.9744" filterUnits="userSpaceOnUse" color-interpolation-filters="sRGB">
<feFlood flood-opacity="0" result="BackgroundImageFix"/>
<feColorMatrix in="SourceAlpha" type="matrix" values="0 0 0 0 0 0 0 0 0 0 0 0 0 0 0 0 0 0 127 0" result="hardAlpha"/>
<feOffset dx="4" dy="3"/>
<feComposite in2="hardAlpha" operator="out"/>
<feColorMatrix type="matrix" values="0 0 0 0 0.895689 0 0 0 0 0.850075 0 0 0 0 0.850075 0 0 0 0.25 0"/>
<feBlend mode="normal" in2="BackgroundImageFix" result="effect1_dropShadow_1901_59"/>
<feBlend mode="normal" in="SourceGraphic" in2="effect1_dropShadow_1901_59" result="shape"/>
</filter>
<clipPath id="clip0_1901_59">
<rect width="199" height="133" fill="white"/>
</clipPath>
</defs>
</svg>
